<mxfile host="Electron" agent="Mozilla/5.0 (X11; Linux x86_64) AppleWebKit/537.36 (KHTML, like Gecko) draw.io/24.7.5 Chrome/126.0.6478.183 Electron/31.3.0 Safari/537.36" version="24.7.5">
  <diagram name="Page-1" id="nhSSe0_1oHJC-J0Gscfc">
    <mxGraphModel dx="1837" dy="776" grid="1" gridSize="10" guides="1" tooltips="1" connect="1" arrows="1" fold="1" page="0" pageScale="1" pageWidth="827" pageHeight="1169" math="0" shadow="0">
      <root>
        <mxCell id="0" />
        <mxCell id="1" parent="0" />
        <mxCell id="-qi0X-64Dlxxy80N8c6h-1" value="" style="rounded=0;whiteSpace=wrap;html=1;fontSize=16;fontFamily=FreeMono;" vertex="1" parent="1">
          <mxGeometry x="-140" y="400" width="60" height="20" as="geometry" />
        </mxCell>
        <mxCell id="-qi0X-64Dlxxy80N8c6h-105" style="edgeStyle=orthogonalEdgeStyle;rounded=0;orthogonalLoop=1;jettySize=auto;html=1;entryX=0.938;entryY=0.5;entryDx=0;entryDy=0;entryPerimeter=0;startArrow=dash;startFill=0;" edge="1" parent="1" source="-qi0X-64Dlxxy80N8c6h-2" target="-qi0X-64Dlxxy80N8c6h-102">
          <mxGeometry relative="1" as="geometry">
            <mxPoint x="70" y="810" as="targetPoint" />
            <Array as="points">
              <mxPoint x="-160" y="520" />
              <mxPoint x="290" y="520" />
              <mxPoint x="290" y="810" />
            </Array>
          </mxGeometry>
        </mxCell>
        <mxCell id="-qi0X-64Dlxxy80N8c6h-2" value="" style="rounded=0;whiteSpace=wrap;html=1;fontSize=16;fontFamily=FreeMono;" vertex="1" parent="1">
          <mxGeometry x="-180" y="400" width="40" height="20" as="geometry" />
        </mxCell>
        <mxCell id="-qi0X-64Dlxxy80N8c6h-107" style="edgeStyle=orthogonalEdgeStyle;rounded=0;orthogonalLoop=1;jettySize=auto;html=1;entryX=0;entryY=0.5;entryDx=0;entryDy=0;" edge="1" parent="1" source="-qi0X-64Dlxxy80N8c6h-3" target="-qi0X-64Dlxxy80N8c6h-53">
          <mxGeometry relative="1" as="geometry">
            <mxPoint x="-820" y="650" as="targetPoint" />
            <Array as="points">
              <mxPoint x="-270" y="520" />
              <mxPoint x="-820" y="520" />
              <mxPoint x="-820" y="650" />
            </Array>
          </mxGeometry>
        </mxCell>
        <mxCell id="-qi0X-64Dlxxy80N8c6h-3" value="" style="rounded=0;whiteSpace=wrap;html=1;fontSize=16;fontFamily=FreeMono;" vertex="1" parent="1">
          <mxGeometry x="-360" y="400" width="180" height="20" as="geometry" />
        </mxCell>
        <mxCell id="-qi0X-64Dlxxy80N8c6h-108" style="edgeStyle=orthogonalEdgeStyle;rounded=0;orthogonalLoop=1;jettySize=auto;html=1;entryX=0;entryY=0.75;entryDx=0;entryDy=0;entryPerimeter=0;startArrow=dash;startFill=0;endArrow=none;endFill=0;" edge="1" parent="1" source="-qi0X-64Dlxxy80N8c6h-4" target="-qi0X-64Dlxxy80N8c6h-93">
          <mxGeometry relative="1" as="geometry">
            <mxPoint x="-580" y="770" as="targetPoint" />
            <Array as="points">
              <mxPoint x="-540" y="500" />
              <mxPoint x="-830" y="500" />
              <mxPoint x="-830" y="740" />
              <mxPoint x="-580" y="740" />
              <mxPoint x="-580" y="770" />
            </Array>
          </mxGeometry>
        </mxCell>
        <mxCell id="-qi0X-64Dlxxy80N8c6h-4" value="" style="rounded=0;whiteSpace=wrap;html=1;fontSize=16;fontFamily=FreeMono;" vertex="1" parent="1">
          <mxGeometry x="-720" y="400" width="360" height="20" as="geometry" />
        </mxCell>
        <mxCell id="-qi0X-64Dlxxy80N8c6h-6" value="&lt;font face=&quot;FreeMono&quot;&gt;18&lt;/font&gt;" style="text;strokeColor=none;align=center;fillColor=none;html=1;verticalAlign=middle;whiteSpace=wrap;rounded=0;" vertex="1" parent="1">
          <mxGeometry x="-530" y="425" width="20" height="10" as="geometry" />
        </mxCell>
        <mxCell id="-qi0X-64Dlxxy80N8c6h-7" value="&lt;font face=&quot;FreeMono&quot;&gt;31&lt;/font&gt;" style="text;strokeColor=none;align=center;fillColor=none;html=1;verticalAlign=middle;whiteSpace=wrap;rounded=0;" vertex="1" parent="1">
          <mxGeometry x="-720" y="390" width="20" height="10" as="geometry" />
        </mxCell>
        <mxCell id="-qi0X-64Dlxxy80N8c6h-8" value="&lt;font face=&quot;FreeMono&quot;&gt;14&lt;/font&gt;" style="text;strokeColor=none;align=center;fillColor=none;html=1;verticalAlign=middle;whiteSpace=wrap;rounded=0;" vertex="1" parent="1">
          <mxGeometry x="-380" y="390" width="20" height="10" as="geometry" />
        </mxCell>
        <mxCell id="-qi0X-64Dlxxy80N8c6h-9" value="&lt;font face=&quot;FreeMono&quot;&gt;13&lt;/font&gt;" style="text;strokeColor=none;align=center;fillColor=none;html=1;verticalAlign=middle;whiteSpace=wrap;rounded=0;" vertex="1" parent="1">
          <mxGeometry x="-360" y="390" width="20" height="10" as="geometry" />
        </mxCell>
        <mxCell id="-qi0X-64Dlxxy80N8c6h-10" value="&lt;font face=&quot;FreeMono&quot;&gt;5&lt;/font&gt;" style="text;strokeColor=none;align=center;fillColor=none;html=1;verticalAlign=middle;whiteSpace=wrap;rounded=0;" vertex="1" parent="1">
          <mxGeometry x="-190" y="390" width="10" height="10" as="geometry" />
        </mxCell>
        <mxCell id="-qi0X-64Dlxxy80N8c6h-11" value="&lt;font face=&quot;FreeMono&quot;&gt;4&lt;/font&gt;" style="text;strokeColor=none;align=center;fillColor=none;html=1;verticalAlign=middle;whiteSpace=wrap;rounded=0;" vertex="1" parent="1">
          <mxGeometry x="-180" y="390" width="10" height="10" as="geometry" />
        </mxCell>
        <mxCell id="-qi0X-64Dlxxy80N8c6h-12" value="&lt;font face=&quot;FreeMono&quot;&gt;3&lt;/font&gt;" style="text;strokeColor=none;align=center;fillColor=none;html=1;verticalAlign=middle;whiteSpace=wrap;rounded=0;" vertex="1" parent="1">
          <mxGeometry x="-150" y="390" width="10" height="10" as="geometry" />
        </mxCell>
        <mxCell id="-qi0X-64Dlxxy80N8c6h-13" value="&lt;font face=&quot;FreeMono&quot;&gt;2&lt;/font&gt;" style="text;strokeColor=none;align=center;fillColor=none;html=1;verticalAlign=middle;whiteSpace=wrap;rounded=0;" vertex="1" parent="1">
          <mxGeometry x="-140" y="390" width="10" height="10" as="geometry" />
        </mxCell>
        <mxCell id="-qi0X-64Dlxxy80N8c6h-14" value="&lt;font face=&quot;FreeMono&quot;&gt;0&lt;/font&gt;" style="text;strokeColor=none;align=center;fillColor=none;html=1;verticalAlign=middle;whiteSpace=wrap;rounded=0;" vertex="1" parent="1">
          <mxGeometry x="-90" y="390" width="10" height="10" as="geometry" />
        </mxCell>
        <mxCell id="-qi0X-64Dlxxy80N8c6h-16" value="&lt;font face=&quot;FreeMono&quot;&gt;10&lt;/font&gt;" style="text;strokeColor=none;align=center;fillColor=none;html=1;verticalAlign=middle;whiteSpace=wrap;rounded=0;" vertex="1" parent="1">
          <mxGeometry x="-260" y="425" width="20" height="10" as="geometry" />
        </mxCell>
        <mxCell id="-qi0X-64Dlxxy80N8c6h-19" value="&lt;font style=&quot;font-size: 16px;&quot; face=&quot;FreeMono&quot;&gt;Tag&lt;/font&gt;" style="text;strokeColor=none;align=center;fillColor=none;html=1;verticalAlign=middle;whiteSpace=wrap;rounded=0;fontSize=16;" vertex="1" parent="1">
          <mxGeometry x="-590" y="480" width="40" height="20" as="geometry" />
        </mxCell>
        <mxCell id="-qi0X-64Dlxxy80N8c6h-20" value="&lt;font style=&quot;font-size: 16px;&quot; face=&quot;FreeMono&quot;&gt;Index&lt;/font&gt;" style="text;strokeColor=none;align=center;fillColor=none;html=1;verticalAlign=middle;whiteSpace=wrap;rounded=0;fontSize=16;" vertex="1" parent="1">
          <mxGeometry x="-330" y="500" width="50" height="20" as="geometry" />
        </mxCell>
        <mxCell id="-qi0X-64Dlxxy80N8c6h-21" value="" style="rounded=0;whiteSpace=wrap;html=1;" vertex="1" parent="1">
          <mxGeometry x="-740" y="560" width="20" height="20" as="geometry" />
        </mxCell>
        <mxCell id="-qi0X-64Dlxxy80N8c6h-22" value="" style="rounded=0;whiteSpace=wrap;html=1;" vertex="1" parent="1">
          <mxGeometry x="-720" y="560" width="360" height="20" as="geometry" />
        </mxCell>
        <mxCell id="-qi0X-64Dlxxy80N8c6h-23" value="" style="rounded=0;whiteSpace=wrap;html=1;" vertex="1" parent="1">
          <mxGeometry x="-360" y="560" width="160" height="20" as="geometry" />
        </mxCell>
        <mxCell id="-qi0X-64Dlxxy80N8c6h-24" value="" style="rounded=0;whiteSpace=wrap;html=1;" vertex="1" parent="1">
          <mxGeometry x="-200" y="560" width="160" height="20" as="geometry" />
        </mxCell>
        <mxCell id="-qi0X-64Dlxxy80N8c6h-25" value="" style="rounded=0;whiteSpace=wrap;html=1;" vertex="1" parent="1">
          <mxGeometry x="-40" y="560" width="160" height="20" as="geometry" />
        </mxCell>
        <mxCell id="-qi0X-64Dlxxy80N8c6h-26" value="" style="rounded=0;whiteSpace=wrap;html=1;" vertex="1" parent="1">
          <mxGeometry x="120" y="560" width="160" height="20" as="geometry" />
        </mxCell>
        <mxCell id="-qi0X-64Dlxxy80N8c6h-27" value="&lt;font style=&quot;font-size: 16px;&quot; face=&quot;FreeMono&quot;&gt;Valid&lt;/font&gt;" style="text;strokeColor=none;align=center;fillColor=none;html=1;verticalAlign=middle;whiteSpace=wrap;rounded=0;fontSize=16;" vertex="1" parent="1">
          <mxGeometry x="-760" y="540" width="60" height="20" as="geometry" />
        </mxCell>
        <mxCell id="-qi0X-64Dlxxy80N8c6h-28" value="&lt;font style=&quot;font-size: 16px;&quot; face=&quot;FreeMono&quot;&gt;Tag&lt;/font&gt;" style="text;strokeColor=none;align=center;fillColor=none;html=1;verticalAlign=middle;whiteSpace=wrap;rounded=0;fontSize=16;" vertex="1" parent="1">
          <mxGeometry x="-570" y="540" width="60" height="20" as="geometry" />
        </mxCell>
        <mxCell id="-qi0X-64Dlxxy80N8c6h-29" value="&lt;font style=&quot;font-size: 16px;&quot; face=&quot;FreeMono&quot;&gt;Data&lt;/font&gt;" style="text;strokeColor=none;align=center;fillColor=none;html=1;verticalAlign=middle;whiteSpace=wrap;rounded=0;fontSize=16;" vertex="1" parent="1">
          <mxGeometry x="-70" y="540" width="60" height="20" as="geometry" />
        </mxCell>
        <mxCell id="-qi0X-64Dlxxy80N8c6h-30" value="&lt;font style=&quot;font-size: 16px;&quot; face=&quot;FreeMono&quot;&gt;Index&lt;/font&gt;" style="text;strokeColor=none;align=center;fillColor=none;html=1;verticalAlign=middle;whiteSpace=wrap;rounded=0;fontSize=16;" vertex="1" parent="1">
          <mxGeometry x="-820" y="540" width="60" height="20" as="geometry" />
        </mxCell>
        <mxCell id="-qi0X-64Dlxxy80N8c6h-31" value="&lt;font face=&quot;FreeMono&quot;&gt;0&lt;/font&gt;" style="text;strokeColor=none;align=center;fillColor=none;html=1;verticalAlign=middle;whiteSpace=wrap;rounded=0;" vertex="1" parent="1">
          <mxGeometry x="-770" y="560" width="10" height="20" as="geometry" />
        </mxCell>
        <mxCell id="-qi0X-64Dlxxy80N8c6h-32" value="" style="rounded=0;whiteSpace=wrap;html=1;" vertex="1" parent="1">
          <mxGeometry x="-740" y="580" width="20" height="20" as="geometry" />
        </mxCell>
        <mxCell id="-qi0X-64Dlxxy80N8c6h-33" value="" style="rounded=0;whiteSpace=wrap;html=1;" vertex="1" parent="1">
          <mxGeometry x="-720" y="580" width="360" height="20" as="geometry" />
        </mxCell>
        <mxCell id="-qi0X-64Dlxxy80N8c6h-34" value="" style="rounded=0;whiteSpace=wrap;html=1;" vertex="1" parent="1">
          <mxGeometry x="-360" y="580" width="160" height="20" as="geometry" />
        </mxCell>
        <mxCell id="-qi0X-64Dlxxy80N8c6h-35" value="" style="rounded=0;whiteSpace=wrap;html=1;" vertex="1" parent="1">
          <mxGeometry x="-200" y="580" width="160" height="20" as="geometry" />
        </mxCell>
        <mxCell id="-qi0X-64Dlxxy80N8c6h-36" value="" style="rounded=0;whiteSpace=wrap;html=1;" vertex="1" parent="1">
          <mxGeometry x="-40" y="580" width="160" height="20" as="geometry" />
        </mxCell>
        <mxCell id="-qi0X-64Dlxxy80N8c6h-37" value="" style="rounded=0;whiteSpace=wrap;html=1;" vertex="1" parent="1">
          <mxGeometry x="120" y="580" width="160" height="20" as="geometry" />
        </mxCell>
        <mxCell id="-qi0X-64Dlxxy80N8c6h-38" value="&lt;font face=&quot;FreeMono&quot;&gt;1&lt;/font&gt;" style="text;strokeColor=none;align=center;fillColor=none;html=1;verticalAlign=middle;whiteSpace=wrap;rounded=0;" vertex="1" parent="1">
          <mxGeometry x="-770" y="580" width="10" height="20" as="geometry" />
        </mxCell>
        <mxCell id="-qi0X-64Dlxxy80N8c6h-39" value="" style="rounded=0;whiteSpace=wrap;html=1;" vertex="1" parent="1">
          <mxGeometry x="-740" y="600" width="20" height="20" as="geometry" />
        </mxCell>
        <mxCell id="-qi0X-64Dlxxy80N8c6h-40" value="" style="rounded=0;whiteSpace=wrap;html=1;" vertex="1" parent="1">
          <mxGeometry x="-720" y="600" width="360" height="20" as="geometry" />
        </mxCell>
        <mxCell id="-qi0X-64Dlxxy80N8c6h-41" value="" style="rounded=0;whiteSpace=wrap;html=1;" vertex="1" parent="1">
          <mxGeometry x="-360" y="600" width="160" height="20" as="geometry" />
        </mxCell>
        <mxCell id="-qi0X-64Dlxxy80N8c6h-42" value="" style="rounded=0;whiteSpace=wrap;html=1;" vertex="1" parent="1">
          <mxGeometry x="-200" y="600" width="160" height="20" as="geometry" />
        </mxCell>
        <mxCell id="-qi0X-64Dlxxy80N8c6h-43" value="" style="rounded=0;whiteSpace=wrap;html=1;" vertex="1" parent="1">
          <mxGeometry x="-40" y="600" width="160" height="20" as="geometry" />
        </mxCell>
        <mxCell id="-qi0X-64Dlxxy80N8c6h-44" value="" style="rounded=0;whiteSpace=wrap;html=1;" vertex="1" parent="1">
          <mxGeometry x="120" y="600" width="160" height="20" as="geometry" />
        </mxCell>
        <mxCell id="-qi0X-64Dlxxy80N8c6h-45" value="&lt;font face=&quot;FreeMono&quot;&gt;2&lt;/font&gt;" style="text;strokeColor=none;align=center;fillColor=none;html=1;verticalAlign=middle;whiteSpace=wrap;rounded=0;" vertex="1" parent="1">
          <mxGeometry x="-770" y="600" width="10" height="20" as="geometry" />
        </mxCell>
        <mxCell id="-qi0X-64Dlxxy80N8c6h-46" value="" style="rounded=0;whiteSpace=wrap;html=1;" vertex="1" parent="1">
          <mxGeometry x="-740" y="620" width="20" height="20" as="geometry" />
        </mxCell>
        <mxCell id="-qi0X-64Dlxxy80N8c6h-47" value="" style="rounded=0;whiteSpace=wrap;html=1;" vertex="1" parent="1">
          <mxGeometry x="-720" y="620" width="360" height="20" as="geometry" />
        </mxCell>
        <mxCell id="-qi0X-64Dlxxy80N8c6h-48" value="" style="rounded=0;whiteSpace=wrap;html=1;" vertex="1" parent="1">
          <mxGeometry x="-360" y="620" width="160" height="20" as="geometry" />
        </mxCell>
        <mxCell id="-qi0X-64Dlxxy80N8c6h-49" value="" style="rounded=0;whiteSpace=wrap;html=1;" vertex="1" parent="1">
          <mxGeometry x="-200" y="620" width="160" height="20" as="geometry" />
        </mxCell>
        <mxCell id="-qi0X-64Dlxxy80N8c6h-50" value="" style="rounded=0;whiteSpace=wrap;html=1;" vertex="1" parent="1">
          <mxGeometry x="-40" y="620" width="160" height="20" as="geometry" />
        </mxCell>
        <mxCell id="-qi0X-64Dlxxy80N8c6h-51" value="" style="rounded=0;whiteSpace=wrap;html=1;" vertex="1" parent="1">
          <mxGeometry x="120" y="620" width="160" height="20" as="geometry" />
        </mxCell>
        <mxCell id="-qi0X-64Dlxxy80N8c6h-52" value="&lt;font face=&quot;FreeMono&quot;&gt;.&lt;/font&gt;" style="text;strokeColor=none;align=center;fillColor=none;html=1;verticalAlign=middle;whiteSpace=wrap;rounded=0;" vertex="1" parent="1">
          <mxGeometry x="-770" y="620" width="10" height="20" as="geometry" />
        </mxCell>
        <mxCell id="-qi0X-64Dlxxy80N8c6h-53" value="" style="rounded=0;whiteSpace=wrap;html=1;fillColor=#ffe6cc;strokeColor=#d79b00;" vertex="1" parent="1">
          <mxGeometry x="-740" y="640" width="20" height="20" as="geometry" />
        </mxCell>
        <mxCell id="-qi0X-64Dlxxy80N8c6h-54" value="" style="rounded=0;whiteSpace=wrap;html=1;fillColor=#ffe6cc;strokeColor=#d79b00;" vertex="1" parent="1">
          <mxGeometry x="-720" y="640" width="360" height="20" as="geometry" />
        </mxCell>
        <mxCell id="-qi0X-64Dlxxy80N8c6h-55" value="" style="rounded=0;whiteSpace=wrap;html=1;fillColor=#ffe6cc;strokeColor=#d79b00;" vertex="1" parent="1">
          <mxGeometry x="-360" y="640" width="160" height="20" as="geometry" />
        </mxCell>
        <mxCell id="-qi0X-64Dlxxy80N8c6h-56" value="" style="rounded=0;whiteSpace=wrap;html=1;fillColor=#ffe6cc;strokeColor=#d79b00;" vertex="1" parent="1">
          <mxGeometry x="-200" y="640" width="160" height="20" as="geometry" />
        </mxCell>
        <mxCell id="-qi0X-64Dlxxy80N8c6h-57" value="" style="rounded=0;whiteSpace=wrap;html=1;fillColor=#ffe6cc;strokeColor=#d79b00;" vertex="1" parent="1">
          <mxGeometry x="-40" y="640" width="160" height="20" as="geometry" />
        </mxCell>
        <mxCell id="-qi0X-64Dlxxy80N8c6h-58" value="" style="rounded=0;whiteSpace=wrap;html=1;fillColor=#ffe6cc;strokeColor=#d79b00;" vertex="1" parent="1">
          <mxGeometry x="120" y="640" width="160" height="20" as="geometry" />
        </mxCell>
        <mxCell id="-qi0X-64Dlxxy80N8c6h-59" value="&lt;font face=&quot;FreeMono&quot;&gt;.&lt;/font&gt;" style="text;strokeColor=none;align=center;fillColor=none;html=1;verticalAlign=middle;whiteSpace=wrap;rounded=0;" vertex="1" parent="1">
          <mxGeometry x="-770" y="640" width="10" height="20" as="geometry" />
        </mxCell>
        <mxCell id="-qi0X-64Dlxxy80N8c6h-60" value="" style="rounded=0;whiteSpace=wrap;html=1;" vertex="1" parent="1">
          <mxGeometry x="-740" y="660" width="20" height="20" as="geometry" />
        </mxCell>
        <mxCell id="-qi0X-64Dlxxy80N8c6h-61" value="" style="rounded=0;whiteSpace=wrap;html=1;" vertex="1" parent="1">
          <mxGeometry x="-720" y="660" width="360" height="20" as="geometry" />
        </mxCell>
        <mxCell id="-qi0X-64Dlxxy80N8c6h-62" value="" style="rounded=0;whiteSpace=wrap;html=1;" vertex="1" parent="1">
          <mxGeometry x="-360" y="660" width="160" height="20" as="geometry" />
        </mxCell>
        <mxCell id="-qi0X-64Dlxxy80N8c6h-63" value="" style="rounded=0;whiteSpace=wrap;html=1;" vertex="1" parent="1">
          <mxGeometry x="-200" y="660" width="160" height="20" as="geometry" />
        </mxCell>
        <mxCell id="-qi0X-64Dlxxy80N8c6h-64" value="" style="rounded=0;whiteSpace=wrap;html=1;" vertex="1" parent="1">
          <mxGeometry x="-40" y="660" width="160" height="20" as="geometry" />
        </mxCell>
        <mxCell id="-qi0X-64Dlxxy80N8c6h-65" value="" style="rounded=0;whiteSpace=wrap;html=1;" vertex="1" parent="1">
          <mxGeometry x="120" y="660" width="160" height="20" as="geometry" />
        </mxCell>
        <mxCell id="-qi0X-64Dlxxy80N8c6h-66" value="&lt;font face=&quot;FreeMono&quot;&gt;.&lt;/font&gt;" style="text;strokeColor=none;align=center;fillColor=none;html=1;verticalAlign=middle;whiteSpace=wrap;rounded=0;" vertex="1" parent="1">
          <mxGeometry x="-770" y="660" width="10" height="20" as="geometry" />
        </mxCell>
        <mxCell id="-qi0X-64Dlxxy80N8c6h-67" value="" style="rounded=0;whiteSpace=wrap;html=1;" vertex="1" parent="1">
          <mxGeometry x="-740" y="680" width="20" height="20" as="geometry" />
        </mxCell>
        <mxCell id="-qi0X-64Dlxxy80N8c6h-68" value="" style="rounded=0;whiteSpace=wrap;html=1;" vertex="1" parent="1">
          <mxGeometry x="-720" y="680" width="360" height="20" as="geometry" />
        </mxCell>
        <mxCell id="-qi0X-64Dlxxy80N8c6h-69" value="" style="rounded=0;whiteSpace=wrap;html=1;" vertex="1" parent="1">
          <mxGeometry x="-360" y="680" width="160" height="20" as="geometry" />
        </mxCell>
        <mxCell id="-qi0X-64Dlxxy80N8c6h-70" value="" style="rounded=0;whiteSpace=wrap;html=1;" vertex="1" parent="1">
          <mxGeometry x="-200" y="680" width="160" height="20" as="geometry" />
        </mxCell>
        <mxCell id="-qi0X-64Dlxxy80N8c6h-71" value="" style="rounded=0;whiteSpace=wrap;html=1;" vertex="1" parent="1">
          <mxGeometry x="-40" y="680" width="160" height="20" as="geometry" />
        </mxCell>
        <mxCell id="-qi0X-64Dlxxy80N8c6h-72" value="" style="rounded=0;whiteSpace=wrap;html=1;" vertex="1" parent="1">
          <mxGeometry x="120" y="680" width="160" height="20" as="geometry" />
        </mxCell>
        <mxCell id="-qi0X-64Dlxxy80N8c6h-73" value="&lt;font face=&quot;FreeMono&quot;&gt;1022&lt;/font&gt;" style="text;strokeColor=none;align=center;fillColor=none;html=1;verticalAlign=middle;whiteSpace=wrap;rounded=0;" vertex="1" parent="1">
          <mxGeometry x="-790" y="680" width="30" height="20" as="geometry" />
        </mxCell>
        <mxCell id="-qi0X-64Dlxxy80N8c6h-74" value="" style="rounded=0;whiteSpace=wrap;html=1;" vertex="1" parent="1">
          <mxGeometry x="-740" y="700" width="20" height="20" as="geometry" />
        </mxCell>
        <mxCell id="-qi0X-64Dlxxy80N8c6h-75" value="" style="rounded=0;whiteSpace=wrap;html=1;" vertex="1" parent="1">
          <mxGeometry x="-720" y="700" width="360" height="20" as="geometry" />
        </mxCell>
        <mxCell id="-qi0X-64Dlxxy80N8c6h-76" value="" style="rounded=0;whiteSpace=wrap;html=1;" vertex="1" parent="1">
          <mxGeometry x="-360" y="700" width="160" height="20" as="geometry" />
        </mxCell>
        <mxCell id="-qi0X-64Dlxxy80N8c6h-77" value="" style="rounded=0;whiteSpace=wrap;html=1;" vertex="1" parent="1">
          <mxGeometry x="-200" y="700" width="160" height="20" as="geometry" />
        </mxCell>
        <mxCell id="-qi0X-64Dlxxy80N8c6h-78" value="" style="rounded=0;whiteSpace=wrap;html=1;" vertex="1" parent="1">
          <mxGeometry x="-40" y="700" width="160" height="20" as="geometry" />
        </mxCell>
        <mxCell id="-qi0X-64Dlxxy80N8c6h-79" value="" style="rounded=0;whiteSpace=wrap;html=1;" vertex="1" parent="1">
          <mxGeometry x="120" y="700" width="160" height="20" as="geometry" />
        </mxCell>
        <mxCell id="-qi0X-64Dlxxy80N8c6h-80" value="&lt;font face=&quot;FreeMono&quot;&gt;1023&lt;/font&gt;" style="text;strokeColor=none;align=center;fillColor=none;html=1;verticalAlign=middle;whiteSpace=wrap;rounded=0;" vertex="1" parent="1">
          <mxGeometry x="-790" y="700" width="30" height="20" as="geometry" />
        </mxCell>
        <mxCell id="-qi0X-64Dlxxy80N8c6h-88" value="" style="edgeStyle=none;orthogonalLoop=1;jettySize=auto;html=1;rounded=0;startArrow=oval;startFill=1;endArrow=none;endFill=0;" edge="1" parent="1">
          <mxGeometry width="80" relative="1" as="geometry">
            <mxPoint x="-730" y="649.83" as="sourcePoint" />
            <mxPoint x="-730" y="760" as="targetPoint" />
            <Array as="points" />
          </mxGeometry>
        </mxCell>
        <mxCell id="-qi0X-64Dlxxy80N8c6h-95" style="edgeStyle=orthogonalEdgeStyle;rounded=0;orthogonalLoop=1;jettySize=auto;html=1;entryX=0.5;entryY=1;entryDx=0;entryDy=0;" edge="1" parent="1" source="-qi0X-64Dlxxy80N8c6h-89" target="-qi0X-64Dlxxy80N8c6h-96">
          <mxGeometry relative="1" as="geometry">
            <mxPoint x="-850" y="450" as="targetPoint" />
          </mxGeometry>
        </mxCell>
        <mxCell id="-qi0X-64Dlxxy80N8c6h-89" value="" style="verticalLabelPosition=bottom;shadow=0;dashed=0;align=center;html=1;verticalAlign=top;shape=mxgraph.electrical.logic_gates.logic_gate;operation=and;rotation=90;direction=south;" vertex="1" parent="1">
          <mxGeometry x="-780" y="740" width="40" height="60" as="geometry" />
        </mxCell>
        <mxCell id="-qi0X-64Dlxxy80N8c6h-91" value="" style="edgeStyle=none;orthogonalLoop=1;jettySize=auto;html=1;rounded=0;startArrow=oval;startFill=1;endArrow=none;endFill=0;entryX=0;entryY=0.25;entryDx=0;entryDy=0;entryPerimeter=0;" edge="1" parent="1" target="-qi0X-64Dlxxy80N8c6h-93">
          <mxGeometry width="80" relative="1" as="geometry">
            <mxPoint x="-540.34" y="650" as="sourcePoint" />
            <mxPoint x="-540" y="790" as="targetPoint" />
            <Array as="points">
              <mxPoint x="-540" y="790" />
            </Array>
          </mxGeometry>
        </mxCell>
        <mxCell id="-qi0X-64Dlxxy80N8c6h-93" value="" style="verticalLabelPosition=bottom;shadow=0;dashed=0;align=center;html=1;verticalAlign=top;shape=mxgraph.electrical.logic_gates.logic_gate;operation=xor;direction=west;" vertex="1" parent="1">
          <mxGeometry x="-670" y="760" width="80" height="40" as="geometry" />
        </mxCell>
        <mxCell id="-qi0X-64Dlxxy80N8c6h-94" style="edgeStyle=orthogonalEdgeStyle;rounded=0;orthogonalLoop=1;jettySize=auto;html=1;entryX=0;entryY=0.25;entryDx=0;entryDy=0;entryPerimeter=0;endArrow=none;endFill=0;" edge="1" parent="1" source="-qi0X-64Dlxxy80N8c6h-93" target="-qi0X-64Dlxxy80N8c6h-89">
          <mxGeometry relative="1" as="geometry" />
        </mxCell>
        <mxCell id="-qi0X-64Dlxxy80N8c6h-96" value="&lt;font style=&quot;font-size: 16px;&quot; face=&quot;FreeMono&quot;&gt;&lt;b&gt;Hit&lt;/b&gt;&lt;/font&gt;" style="text;strokeColor=none;align=center;fillColor=none;html=1;verticalAlign=middle;whiteSpace=wrap;rounded=0;fontSize=16;" vertex="1" parent="1">
          <mxGeometry x="-880" y="420" width="60" height="20" as="geometry" />
        </mxCell>
        <mxCell id="-qi0X-64Dlxxy80N8c6h-97" value="" style="edgeStyle=none;orthogonalLoop=1;jettySize=auto;html=1;rounded=0;startArrow=oval;startFill=1;endArrow=none;endFill=0;entryX=0.125;entryY=0;entryDx=0;entryDy=0;entryPerimeter=0;" edge="1" parent="1" target="-qi0X-64Dlxxy80N8c6h-102">
          <mxGeometry width="80" relative="1" as="geometry">
            <mxPoint x="-280.34000000000003" y="650" as="sourcePoint" />
            <mxPoint x="-90" y="780" as="targetPoint" />
            <Array as="points">
              <mxPoint x="-280" y="770" />
              <mxPoint x="-100" y="770" />
            </Array>
          </mxGeometry>
        </mxCell>
        <mxCell id="-qi0X-64Dlxxy80N8c6h-98" value="" style="edgeStyle=none;orthogonalLoop=1;jettySize=auto;html=1;rounded=0;startArrow=oval;startFill=1;endArrow=none;endFill=0;entryX=0.375;entryY=0;entryDx=0;entryDy=0;entryPerimeter=0;" edge="1" parent="1" target="-qi0X-64Dlxxy80N8c6h-102">
          <mxGeometry width="80" relative="1" as="geometry">
            <mxPoint x="-120.34000000000003" y="650" as="sourcePoint" />
            <mxPoint x="-50" y="790" as="targetPoint" />
            <Array as="points">
              <mxPoint x="-120" y="760" />
              <mxPoint x="-60" y="760" />
            </Array>
          </mxGeometry>
        </mxCell>
        <mxCell id="-qi0X-64Dlxxy80N8c6h-99" value="" style="edgeStyle=none;orthogonalLoop=1;jettySize=auto;html=1;rounded=0;startArrow=oval;startFill=1;endArrow=none;endFill=0;entryX=0.625;entryY=0;entryDx=0;entryDy=0;entryPerimeter=0;" edge="1" parent="1" target="-qi0X-64Dlxxy80N8c6h-102">
          <mxGeometry width="80" relative="1" as="geometry">
            <mxPoint x="39.65999999999997" y="650" as="sourcePoint" />
            <mxPoint x="-20" y="790" as="targetPoint" />
            <Array as="points">
              <mxPoint x="40" y="760" />
              <mxPoint x="-20" y="760" />
            </Array>
          </mxGeometry>
        </mxCell>
        <mxCell id="-qi0X-64Dlxxy80N8c6h-100" value="" style="edgeStyle=none;orthogonalLoop=1;jettySize=auto;html=1;rounded=0;startArrow=oval;startFill=1;endArrow=none;endFill=0;entryX=0.875;entryY=0;entryDx=0;entryDy=0;entryPerimeter=0;" edge="1" parent="1" target="-qi0X-64Dlxxy80N8c6h-102">
          <mxGeometry width="80" relative="1" as="geometry">
            <mxPoint x="199.65999999999997" y="650" as="sourcePoint" />
            <mxPoint y="790" as="targetPoint" />
            <Array as="points">
              <mxPoint x="200" y="770" />
              <mxPoint x="20" y="770" />
            </Array>
          </mxGeometry>
        </mxCell>
        <mxCell id="-qi0X-64Dlxxy80N8c6h-103" style="edgeStyle=orthogonalEdgeStyle;rounded=0;orthogonalLoop=1;jettySize=auto;html=1;entryX=0.5;entryY=1;entryDx=0;entryDy=0;startArrow=dash;startFill=0;" edge="1" parent="1" source="-qi0X-64Dlxxy80N8c6h-102" target="-qi0X-64Dlxxy80N8c6h-104">
          <mxGeometry relative="1" as="geometry">
            <mxPoint x="300" y="480" as="targetPoint" />
            <Array as="points">
              <mxPoint x="-40" y="850" />
              <mxPoint x="300" y="850" />
            </Array>
          </mxGeometry>
        </mxCell>
        <mxCell id="-qi0X-64Dlxxy80N8c6h-102" value="" style="verticalLabelPosition=bottom;verticalAlign=top;html=1;shape=mxgraph.basic.polygon;polyCoords=[[0.15,1],[0.85,1],[1,0],[0,0]];polyline=0;" vertex="1" parent="1">
          <mxGeometry x="-120" y="800" width="160" height="20" as="geometry" />
        </mxCell>
        <mxCell id="-qi0X-64Dlxxy80N8c6h-104" value="&lt;font style=&quot;font-size: 16px;&quot; face=&quot;FreeMono&quot;&gt;&lt;b&gt;Data&lt;/b&gt;&lt;/font&gt;" style="text;strokeColor=none;align=center;fillColor=none;html=1;verticalAlign=middle;whiteSpace=wrap;rounded=0;fontSize=16;" vertex="1" parent="1">
          <mxGeometry x="270" y="420" width="60" height="20" as="geometry" />
        </mxCell>
        <mxCell id="-qi0X-64Dlxxy80N8c6h-109" value="&lt;font style=&quot;font-size: 16px;&quot; face=&quot;FreeMono&quot;&gt;Block Offset&lt;/font&gt;" style="text;strokeColor=none;align=center;fillColor=none;html=1;verticalAlign=middle;whiteSpace=wrap;rounded=0;fontSize=16;" vertex="1" parent="1">
          <mxGeometry x="-150" y="500" width="120" height="20" as="geometry" />
        </mxCell>
        <mxCell id="-qi0X-64Dlxxy80N8c6h-110" value="&lt;font face=&quot;FreeMono&quot;&gt;32&lt;/font&gt;" style="text;strokeColor=none;align=center;fillColor=none;html=1;verticalAlign=middle;whiteSpace=wrap;rounded=0;" vertex="1" parent="1">
          <mxGeometry x="-30" y="825" width="20" height="10" as="geometry" />
        </mxCell>
        <mxCell id="-qi0X-64Dlxxy80N8c6h-111" value="&lt;font face=&quot;FreeMono&quot;&gt;2&lt;/font&gt;" style="text;strokeColor=none;align=center;fillColor=none;html=1;verticalAlign=middle;whiteSpace=wrap;rounded=0;" vertex="1" parent="1">
          <mxGeometry x="-155" y="425" width="15" height="10" as="geometry" />
        </mxCell>
        <mxCell id="-qi0X-64Dlxxy80N8c6h-112" value="&lt;font style=&quot;font-size: 16px;&quot; face=&quot;FreeMono&quot;&gt;Byte Offset&lt;/font&gt;" style="text;strokeColor=none;align=center;fillColor=none;html=1;verticalAlign=middle;whiteSpace=wrap;rounded=0;fontSize=16;" vertex="1" parent="1">
          <mxGeometry x="-140" y="425" width="120" height="20" as="geometry" />
        </mxCell>
      </root>
    </mxGraphModel>
  </diagram>
</mxfile>
